Montserrat-BoldItalic.ufo
<glyph name="exclam" format="2">
  <advance width="314"/>
  <unicode hex="0021"/>
  <outline>
    <contour>
      <point x="66" y="268" type="line"/>
      <point x="246" y="268" type="line"/>
      <point x="377" y="700" type="line"/>
      <point x="107" y="700" type="line"/>
    </contour>
    <contour>
      <point x="117" y="-10" type="curve" smooth="yes"/>
      <point x="196" y="-10"/>
      <point x="256" y="47"/>
      <point x="256" y="120" type="curve" smooth="yes"/>
      <point x="256" y="181"/>
      <point x="205" y="228"/>
      <point x="131" y="228" type="curve" smooth="yes"/>
      <point x="52" y="228"/>
      <point x="-8" y="175"/>
      <point x="-8" y="100" type="curve" smooth="yes"/>
      <point x="-8" y="39"/>
      <point x="43" y="-10"/>
    </contour>
  </outline>
</glyph>
<glyph name="quotesingle" format="2">
  <advance width="254"/>
  <unicode hex="0027"/>
  <outline>
    <contour>
      <point x="72" y="400" type="line"/>
      <point x="232" y="400" type="line"/>
      <point x="307" y="700" type="line"/>
      <point x="117" y="700" type="line"/>
    </contour>
  </outline>
</glyph>
<glyph name="Y" format="2">
  <advance width="710"/>
  <unicode hex="0059"/>
  <guideline x="326" y="129" angle="258.7"/>
  <anchor x="300" y="0" name="bottom"/>
  <anchor x="344" y="217" name="center"/>
  <anchor x="440" y="700" name="top"/>
  <anchor x="177" y="700" name="topleft"/>
  <outline>
    <contour>
      <point x="182" y="0" type="line"/>
      <point x="418" y="0" type="line"/>
      <point x="479" y="307" type="line"/>
      <point x="399" y="166" type="line"/>
      <point x="822" y="700" type="line"/>
      <point x="585" y="700" type="line"/>
      <point x="290" y="333" type="line"/>
      <point x="439" y="333" type="line"/>
      <point x="295" y="700" type="line"/>
      <point x="58" y="700" type="line"/>
      <point x="269" y="166" type="line"/>
      <point x="243" y="307" type="line"/>
    </contour>
  </outline>
</glyph>
<glyph name="bracketright" format="2">
  <advance width="410"/>
  <unicode hex="005D"/>
  <outline>
    <contour>
      <point x="260" y="-194" type="line"/>
      <point x="447" y="742" type="line"/>
      <point x="105" y="742" type="line"/>
      <point x="71" y="572" type="line"/>
      <point x="187" y="572" type="line"/>
      <point x="68" y="-24" type="line"/>
      <point x="-48" y="-24" type="line"/>
      <point x="-82" y="-194" type="line"/>
    </contour>
  </outline>
</glyph>
<glyph name="braceleft" format="2">
  <advance width="438"/>
  <unicode hex="007B"/>
  <outline>
    <contour>
      <point x="260" y="-194" type="curve" smooth="yes"/>
      <point x="334" y="-194" type="line"/>
      <point x="368" y="-24" type="line"/>
      <point x="358" y="-24" type="line" smooth="yes"/>
      <point x="314" y="-24"/>
      <point x="293" y="4"/>
      <point x="302" y="48" type="curve" smooth="yes"/>
      <point x="320" y="140" type="line" smooth="yes"/>
      <point x="338" y="230"/>
      <point x="301" y="278"/>
      <point x="194" y="286" type="curve"/>
      <point x="189" y="262" type="line"/>
      <point x="312" y="270"/>
      <point x="352" y="298"/>
      <point x="374" y="408" type="curve" smooth="yes"/>
      <point x="393" y="503" type="line" smooth="yes"/>
      <point x="403" y="552"/>
      <point x="424" y="572"/>
      <point x="477" y="572" type="curve" smooth="yes"/>
      <point x="487" y="572" type="line"/>
      <point x="521" y="742" type="line"/>
      <point x="447" y="742" type="line" smooth="yes"/>
      <point x="283" y="742"/>
      <point x="202" y="679"/>
      <point x="172" y="529" type="curve" smooth="yes"/>
      <point x="147" y="403" type="line" smooth="yes"/>
      <point x="141" y="373"/>
      <point x="120" y="359"/>
      <point x="95" y="359" type="curve" smooth="yes"/>
      <point x="62" y="359" type="line"/>
      <point x="28" y="189" type="line"/>
      <point x="61" y="189" type="line" smooth="yes"/>
      <point x="86" y="189"/>
      <point x="101" y="175"/>
      <point x="95" y="145" type="curve" smooth="yes"/>
      <point x="70" y="19" type="line" smooth="yes"/>
      <point x="45" y="-106"/>
      <point x="115" y="-194"/>
    </contour>
  </outline>
</glyph>
<glyph name="asciitilde" format="2">
  <advance width="620"/>
  <unicode hex="007E"/>
  <outline>
    <contour>
      <point x="411" y="235" type="curve" smooth="yes"/>
      <point x="510" y="235"/>
      <point x="596" y="317"/>
      <point x="616" y="456" type="curve"/>
      <point x="478" y="456" type="line"/>
      <point x="471" y="416"/>
      <point x="449" y="393"/>
      <point x="417" y="393" type="curve" smooth="yes"/>
      <point x="372" y="393"/>
      <point x="331" y="468"/>
      <point x="240" y="468" type="curve" smooth="yes"/>
      <point x="141" y="468"/>
      <point x="54" y="386"/>
      <point x="34" y="247" type="curve"/>
      <point x="172" y="247" type="line"/>
      <point x="179" y="287"/>
      <point x="202" y="310"/>
      <point x="234" y="310" type="curve" smooth="yes"/>
      <point x="279" y="310"/>
      <point x="320" y="235"/>
    </contour>
  </outline>
</glyph>
<glyph name="exclamdown" format="2">
  <advance width="314"/>
  <unicode hex="00A1"/>
  <outline>
    <contour>
      <point x="-63" y="-154" type="line"/>
      <point x="207" y="-154" type="line"/>
      <point x="248" y="279" type="line"/>
      <point x="68" y="279" type="line"/>
    </contour>
    <contour>
      <point x="183" y="319" type="curve" smooth="yes"/>
      <point x="262" y="319"/>
      <point x="322" y="372"/>
      <point x="322" y="447" type="curve" smooth="yes"/>
      <point x="322" y="508"/>
      <point x="271" y="557"/>
      <point x="197" y="557" type="curve" smooth="yes"/>
      <point x="118" y="557"/>
      <point x="58" y="500"/>
      <point x="58" y="427" type="curve" smooth="yes"/>
      <point x="58" y="366"/>
      <point x="109" y="319"/>
    </contour>
  </outline>
</glyph>
<glyph name="brokenbar" format="2">
  <advance width="320"/>
  <unicode hex="00A6"/>
  <outline>
    <contour>
      <point x="81" y="392" type="line"/>
      <point x="287" y="392" type="line"/>
      <point x="357" y="742" type="line"/>
      <point x="151" y="742" type="line"/>
    </contour>
    <contour>
      <point x="-36" y="-194" type="line"/>
      <point x="170" y="-194" type="line"/>
      <point x="240" y="156" type="line"/>
      <point x="34" y="156" type="line"/>
    </contour>
  </outline>
</glyph>
<glyph name="logicalnot" format="2">
  <advance width="619"/>
  <unicode hex="00AC"/>
  <outline>
    <contour>
      <point x="597" y="435" type="line"/>
      <point x="87" y="435" type="line"/>
      <point x="53" y="265" type="line"/>
      <point x="383" y="265" type="line"/>
      <point x="349" y="95" type="line"/>
      <point x="529" y="95" type="line"/>
    </contour>
  </outline>
</glyph>
<glyph name="ordmasculine" format="2">
  <advance width="438"/>
  <unicode hex="00BA"/>
  <outline>
    <contour>
      <point x="262" y="414" type="curve" smooth="yes"/>
      <point x="388" y="414"/>
      <point x="484" y="486"/>
      <point x="484" y="599" type="curve" smooth="yes"/>
      <point x="484" y="687"/>
      <point x="410" y="752"/>
      <point x="299" y="752" type="curve" smooth="yes"/>
      <point x="174" y="752"/>
      <point x="77" y="680"/>
      <point x="77" y="568" type="curve" smooth="yes"/>
      <point x="77" y="479"/>
      <point x="152" y="414"/>
    </contour>
    <contour>
      <point x="274" y="524" type="curve" smooth="yes"/>
      <point x="245" y="524"/>
      <point x="228" y="544"/>
      <point x="228" y="574" type="curve" smooth="yes"/>
      <point x="228" y="613"/>
      <point x="251" y="642"/>
      <point x="287" y="642" type="curve" smooth="yes"/>
      <point x="314" y="642"/>
      <point x="333" y="624"/>
      <point x="333" y="592" type="curve" smooth="yes"/>
      <point x="333" y="547"/>
      <point x="305" y="524"/>
    </contour>
  </outline>
</glyph>
<glyph name="florin" format="2">
  <advance width="519"/>
  <unicode hex="0192"/>
  <outline>
    <contour>
      <point x="-35" y="-204" type="curve" smooth="yes"/>
      <point x="102" y="-204"/>
      <point x="206" y="-136"/>
      <point x="253" y="10" type="curve" smooth="yes"/>
      <point x="379" y="399" type="line"/>
      <point x="401" y="492" type="line"/>
      <point x="410" y="518" type="line" smooth="yes"/>
      <point x="423" y="562"/>
      <point x="452" y="581"/>
      <point x="484" y="581" type="curve" smooth="yes"/>
      <point x="502" y="581"/>
      <point x="517" y="577"/>
      <point x="531" y="568" type="curve"/>
      <point x="636" y="725" type="line"/>
      <point x="608" y="743"/>
      <point x="558" y="752"/>
      <point x="500" y="752" type="curve" smooth="yes"/>
      <point x="354" y="752"/>
      <point x="244" y="680"/>
      <point x="192" y="520" type="curve" smooth="yes"/>
      <point x="34" y="30" type="line" smooth="yes"/>
      <point x="20" y="-14"/>
      <point x="-7" y="-33"/>
      <point x="-34" y="-33" type="curve" smooth="yes"/>
      <point x="-52" y="-33"/>
      <point x="-68" y="-28"/>
      <point x="-81" y="-20" type="curve"/>
      <point x="-181" y="-170" type="line"/>
      <point x="-152" y="-188"/>
      <point x="-98" y="-204"/>
    </contour>
    <contour>
      <point x="62" y="352" type="line"/>
      <point x="475" y="352" type="line"/>
      <point x="528" y="517" type="line"/>
      <point x="115" y="517" type="line"/>
    </contour>
  </outline>
</glyph>
<glyph name="fourthtonechinese" format="2">
  <advance width="600"/>
  <unicode hex="02CB"/>
  <anchor x="355" y="547" name="_top"/>
  <anchor x="398" y="760" name="top"/>
  <outline>
    <contour>
      <point x="322" y="607" type="line"/>
      <point x="472" y="607" type="line"/>
      <point x="372" y="767" type="line"/>
      <point x="157" y="767" type="line"/>
    </contour>
  </outline>
</glyph>
<glyph name="dblgravecomb" format="2">
  <unicode hex="030F"/>
  <anchor x="355" y="547" name="_top"/>
  <anchor x="398" y="760" name="top"/>
  <outline>
    <contour>
      <point x="414" y="607" type="line"/>
      <point x="554" y="607" type="line"/>
      <point x="534" y="767" type="line"/>
      <point x="349" y="767" type="line"/>
    </contour>
    <contour>
      <point x="180" y="607" type="line"/>
      <point x="320" y="607" type="line"/>
      <point x="300" y="767" type="line"/>
      <point x="115" y="767" type="line"/>
    </contour>
  </outline>
</glyph>
<glyph name="slashshortcomb" format="2">
  <unicode hex="0337"/>
  <anchor x="326" y="401" name="_center"/>
  <outline>
    <contour>
      <point x="129" y="206" type="line"/>
      <point x="579" y="496" type="line"/>
      <point x="521" y="593" type="line"/>
      <point x="71" y="303" type="line"/>
    </contour>
  </outline>
</glyph>
<glyph name="Ereversed-cy" format="2">
  <advance width="726"/>
  <unicode hex="042D"/>
  <guideline x="34" y="537" angle="90"/>
  <anchor x="427" y="700" name="top"/>
  <outline>
    <contour>
      <point x="227" y="267" type="line"/>
      <point x="540" y="267" type="line"/>
      <point x="574" y="437" type="line"/>
      <point x="261" y="437" type="line"/>
    </contour>
    <contour>
      <point x="406" y="716" type="curve" smooth="yes"/>
      <point x="274" y="716"/>
      <point x="152" y="663"/>
      <point x="69" y="576" type="curve"/>
      <point x="192" y="443" type="line"/>
      <point x="243" y="495"/>
      <point x="299" y="525"/>
      <point x="360" y="525" type="curve" smooth="yes"/>
      <point x="438" y="525"/>
      <point x="481" y="476"/>
      <point x="481" y="387" type="curve" smooth="yes"/>
      <point x="481" y="269"/>
      <point x="404" y="175"/>
      <point x="291" y="175" type="curve" smooth="yes"/>
      <point x="228" y="175"/>
      <point x="185" y="205"/>
      <point x="155" y="257" type="curve"/>
      <point x="-21" y="124" type="line"/>
      <point x="46" y="27"/>
      <point x="154" y="-16"/>
      <point x="269" y="-16" type="curve" smooth="yes"/>
      <point x="503" y="-16"/>
      <point x="722" y="164"/>
      <point x="722" y="413" type="curve" smooth="yes"/>
      <point x="722" y="593"/>
      <point x="607" y="716"/>
    </contour>
  </outline>
</glyph>
<glyph name="ve-cy" format="2">
  <advance width="629"/>
  <unicode hex="0432"/>
  <anchor x="272" y="0" name="bottom"/>
  <anchor x="382" y="547" name="top"/>
  <outline>
    <contour>
      <point x="-2" y="0" type="line"/>
      <point x="329" y="0" type="line" smooth="yes"/>
      <point x="494" y="0"/>
      <point x="585" y="66"/>
      <point x="585" y="171" type="curve" smooth="yes"/>
      <point x="585" y="261"/>
      <point x="517" y="305"/>
      <point x="401" y="305" type="curve"/>
      <point x="388" y="259" type="line"/>
      <point x="529" y="259"/>
      <point x="617" y="319"/>
      <point x="617" y="411" type="curve" smooth="yes"/>
      <point x="617" y="498"/>
      <point x="540" y="547"/>
      <point x="407" y="547" type="curve" smooth="yes"/>
      <point x="108" y="547" type="line"/>
    </contour>
    <contour>
      <point x="224" y="140" type="line"/>
      <point x="240" y="220" type="line"/>
      <point x="347" y="220" type="line" smooth="yes"/>
      <point x="372" y="220"/>
      <point x="388" y="208"/>
      <point x="388" y="185" type="curve" smooth="yes"/>
      <point x="388" y="159"/>
      <point x="367" y="140"/>
      <point x="332" y="140" type="curve" smooth="yes"/>
    </contour>
    <contour>
      <point x="262" y="331" type="line"/>
      <point x="278" y="411" type="line"/>
      <point x="366" y="411" type="line" smooth="yes"/>
      <point x="391" y="411"/>
      <point x="407" y="399"/>
      <point x="407" y="376" type="curve" smooth="yes"/>
      <point x="407" y="350"/>
      <point x="386" y="331"/>
      <point x="351" y="331" type="curve" smooth="yes"/>
    </contour>
  </outline>
</glyph>
<glyph name="hardsign-cy" format="2">
  <advance width="745"/>
  <unicode hex="044A"/>
  <outline>
    <contour>
      <point x="277" y="371" type="line"/>
      <point x="439" y="547" type="line"/>
      <point x="67" y="547" type="line"/>
      <point x="31" y="371" type="line"/>
    </contour>
    <contour>
      <point x="517" y="382" type="curve" smooth="yes"/>
      <point x="406" y="382" type="line"/>
      <point x="439" y="547" type="line"/>
      <point x="214" y="547" type="line"/>
      <point x="105" y="0" type="line"/>
      <point x="427" y="0" type="line" smooth="yes"/>
      <point x="603" y="0"/>
      <point x="719" y="88"/>
      <point x="719" y="221" type="curve" smooth="yes"/>
      <point x="719" y="325"/>
      <point x="648" y="382"/>
    </contour>
    <contour>
      <point x="430" y="152" type="curve" smooth="yes"/>
      <point x="360" y="152" type="line"/>
      <point x="380" y="250" type="line"/>
      <point x="450" y="250" type="line" smooth="yes"/>
      <point x="478" y="250"/>
      <point x="491" y="238"/>
      <point x="491" y="212" type="curve" smooth="yes"/>
      <point x="491" y="175"/>
      <point x="467" y="152"/>
    </contour>
  </outline>
</glyph>
<glyph name="tshe-cy" format="2">
  <advance width="696"/>
  <unicode hex="045B"/>
  <anchor x="305" y="0" name="bottom"/>
  <anchor x="271" y="638" name="center"/>
  <anchor x="261" y="742" name="top"/>
  <anchor x="368" y="547" name="topright"/>
  <outline>
    <contour>
      <point x="6" y="583" type="line"/>
      <point x="515" y="583" type="line"/>
      <point x="537" y="693" type="line"/>
      <point x="28" y="693" type="line"/>
    </contour>
    <component base="h" xOffset="3"/>
  </outline>
</glyph>
<glyph name="Kastroke-cy" format="2">
  <advance width="821"/>
  <unicode hex="049E"/>
  <outline>
    <contour>
      <point x="65" y="542" type="line"/>
      <point x="472" y="542" type="line"/>
      <point x="492" y="642" type="line"/>
      <point x="85" y="642" type="line"/>
    </contour>
    <component base="Ka-cy" xOffset="48"/>
  </outline>
</glyph>
<glyph name="tedescender-cy" format="2">
  <advance width="583"/>
  <unicode hex="04AD"/>
  <anchor x="240" y="0" name="bottom"/>
  <anchor x="124" y="0" name="bottomleft"/>
  <anchor x="288" y="238" name="center"/>
  <anchor x="350" y="547" name="top"/>
  <outline>
    <contour>
      <point x="124" y="0" type="line"/>
      <point x="349" y="0" type="line"/>
      <point x="430" y="419" type="line"/>
      <point x="372" y="371" type="line"/>
      <point x="590" y="371" type="line"/>
      <point x="626" y="547" type="line"/>
      <point x="67" y="547" type="line"/>
      <point x="31" y="371" type="line"/>
      <point x="245" y="371" type="line"/>
      <point x="205" y="419" type="line"/>
    </contour>
    <contour>
      <point x="194" y="-101" type="line"/>
      <point x="403" y="-101" type="line"/>
      <point x="459" y="177" type="line"/>
      <point x="160" y="177" type="line"/>
      <point x="124" y="0" type="line"/>
      <point x="263" y="0" type="line"/>
      <point x="224" y="48" type="line"/>
    </contour>
  </outline>
</glyph>
<glyph name="ustrait-cy" format="2">
  <advance width="668"/>
  <unicode hex="04AF"/>
  <anchor x="279" y="5" name="center"/>
  <outline>
    <contour>
      <point x="411" y="100" type="line"/>
      <point x="185" y="100" type="line"/>
      <point x="126" y="-194" type="line"/>
      <point x="352" y="-194" type="line"/>
    </contour>
    <contour>
      <point x="180" y="-81" type="line"/>
      <point x="348" y="-81" type="line"/>
      <point x="726" y="547" type="line"/>
      <point x="503" y="547" type="line"/>
      <point x="240" y="102" type="line"/>
      <point x="357" y="102" type="line"/>
      <point x="275" y="547" type="line"/>
      <point x="52" y="547" type="line"/>
    </contour>
  </outline>
</glyph>
<glyph name="cheverticalstroke-cy" format="2">
  <advance width="661"/>
  <unicode hex="04B9"/>
  <outline>
    <contour>
      <point x="239" y="91" type="line"/>
      <point x="316" y="91" type="line"/>
      <point x="378" y="402" type="line"/>
      <point x="305" y="402" type="line"/>
    </contour>
    <component base="che-cy"/>
  </outline>
</glyph>
<glyph name="Palochka-cy" format="2">
  <advance width="360"/>
  <unicode hex="04C0"/>
  <anchor x="125" y="0" name="bottom"/>
  <anchor x="243" y="0" name="ogonek"/>
  <anchor x="265" y="700" name="top"/>
  <anchor x="81" y="700" name="topleft"/>
  <outline>
    <contour>
      <point x="7" y="0" type="line"/>
      <point x="243" y="0" type="line"/>
      <point x="383" y="700" type="line"/>
      <point x="147" y="700" type="line"/>
    </contour>
  </outline>
</glyph>
<glyph name="chekhakassian-cy" format="2">
  <advance width="657"/>
  <unicode hex="04CC"/>
  <outline>
    <contour>
      <point x="238" y="197" type="curve" smooth="yes"/>
      <point x="304" y="197"/>
      <point x="352" y="213"/>
      <point x="386" y="234" type="curve"/>
      <point x="416" y="386" type="line"/>
      <point x="393" y="371"/>
      <point x="362" y="362"/>
      <point x="325" y="362" type="curve" smooth="yes"/>
      <point x="282" y="362"/>
      <point x="264" y="379"/>
      <point x="275" y="435" type="curve" smooth="yes"/>
      <point x="298" y="547" type="line"/>
      <point x="73" y="547" type="line"/>
      <point x="47" y="420" type="line" smooth="yes"/>
      <point x="16" y="263"/>
      <point x="81" y="197"/>
    </contour>
    <contour>
      <point x="212" y="-101" type="line"/>
      <point x="422" y="-101" type="line"/>
      <point x="452" y="48" type="line"/>
      <point x="393" y="0" type="line"/>
      <point x="530" y="0" type="line"/>
      <point x="564" y="167" type="line"/>
      <point x="266" y="167" type="line"/>
    </contour>
    <contour>
      <point x="324" y="0" type="line"/>
      <point x="549" y="0" type="line"/>
      <point x="659" y="547" type="line"/>
      <point x="434" y="547" type="line"/>
    </contour>
  </outline>
</glyph>
<glyph name="Dzeabkhasian-cy" format="2">
  <advance width="630"/>
  <unicode hex="04E0"/>
  <outline>
    <contour>
      <point x="243" y="-16" type="curve" smooth="yes"/>
      <point x="445" y="-16"/>
      <point x="598" y="95"/>
      <point x="598" y="246" type="curve" smooth="yes"/>
      <point x="598" y="359"/>
      <point x="504" y="433"/>
      <point x="359" y="433" type="curve" smooth="yes"/>
      <point x="307" y="433" type="line"/>
      <point x="412" y="371" type="line"/>
      <point x="625" y="555" type="line"/>
      <point x="654" y="700" type="line"/>
      <point x="132" y="700" type="line"/>
      <point x="96" y="522" type="line"/>
      <point x="445" y="522" type="line"/>
      <point x="435" y="601" type="line"/>
      <point x="222" y="417" type="line"/>
      <point x="193" y="272" type="line"/>
      <point x="290" y="272" type="line" smooth="yes"/>
      <point x="338" y="272"/>
      <point x="360" y="258"/>
      <point x="360" y="230" type="curve" smooth="yes"/>
      <point x="360" y="191"/>
      <point x="324" y="170"/>
      <point x="259" y="170" type="curve" smooth="yes"/>
      <point x="201" y="170"/>
      <point x="135" y="186"/>
      <point x="80" y="221" type="curve"/>
      <point x="-27" y="57" type="line"/>
      <point x="47" y="7"/>
      <point x="143" y="-16"/>
    </contour>
  </outline>
</glyph>
<glyph name="Reversedze-cy" format="2">
  <advance width="701"/>
  <unicode hex="0510"/>
  <outline>
    <contour>
      <point x="342" y="-16" type="curve" smooth="yes"/>
      <point x="455" y="-16"/>
      <point x="572" y="9"/>
      <point x="648" y="48" type="curve"/>
      <point x="598" y="216" type="line"/>
      <point x="540" y="185"/>
      <point x="459" y="164"/>
      <point x="380" y="164" type="curve" smooth="yes"/>
      <point x="285" y="164"/>
      <point x="249" y="183"/>
      <point x="249" y="215" type="curve" smooth="yes"/>
      <point x="249" y="248"/>
      <point x="282" y="266"/>
      <point x="327" y="266" type="curve" smooth="yes"/>
      <point x="538" y="266" type="line"/>
      <point x="573" y="440" type="line"/>
      <point x="401" y="440" type="line" smooth="yes"/>
      <point x="352" y="440"/>
      <point x="331" y="453"/>
      <point x="331" y="475" type="curve" smooth="yes"/>
      <point x="331" y="511"/>
      <point x="369" y="536"/>
      <point x="456" y="536" type="curve" smooth="yes"/>
      <point x="516" y="536"/>
      <point x="591" y="527"/>
      <point x="657" y="498" type="curve"/>
      <point x="732" y="667" type="line"/>
      <point x="673" y="697"/>
      <point x="580" y="716"/>
      <point x="472" y="716" type="curve" smooth="yes"/>
      <point x="243" y="716"/>
      <point x="95" y="620"/>
      <point x="95" y="471" type="curve" smooth="yes"/>
      <point x="95" y="400"/>
      <point x="151" y="335"/>
      <point x="274" y="335" type="curve"/>
      <point x="279" y="387" type="line"/>
      <point x="123" y="387"/>
      <point x="7" y="311"/>
      <point x="7" y="180" type="curve" smooth="yes"/>
      <point x="7" y="57"/>
      <point x="131" y="-16"/>
    </contour>
  </outline>
</glyph>
<glyph name="we-cy" format="2">
  <advance width="996"/>
  <unicode hex="051D"/>
  <anchor x="511" y="0" name="bottom"/>
  <anchor x="511" y="547" name="top"/>
  <outline>
    <contour>
      <point x="141" y="0" type="line"/>
      <point x="363" y="0" type="line"/>
      <point x="545" y="352" type="line"/>
      <point x="478" y="352" type="line"/>
      <point x="534" y="0" type="line"/>
      <point x="757" y="0" type="line"/>
      <point x="1052" y="547" type="line"/>
      <point x="842" y="547" type="line"/>
      <point x="603" y="103" type="line"/>
      <point x="709" y="103" type="line"/>
      <point x="647" y="547" type="line"/>
      <point x="453" y="547" type="line"/>
      <point x="213" y="103" type="line"/>
      <point x="320" y="103" type="line"/>
      <point x="259" y="547" type="line"/>
      <point x="53" y="547" type="line"/>
    </contour>
  </outline>
</glyph>
<glyph name="figuredash" format="2">
  <advance width="700"/>
  <unicode hex="2012"/>
  <outline>
    <contour>
      <point x="43" y="290" type="line"/>
      <point x="663" y="290" type="line"/>
      <point x="689" y="420" type="line"/>
      <point x="69" y="420" type="line"/>
    </contour>
  </outline>
</glyph>
<glyph name="guilsinglright" format="2">
  <advance width="378"/>
  <unicode hex="203A"/>
  <outline>
    <contour>
      <point x="255" y="474" type="line"/>
      <point x="59" y="474" type="line"/>
      <point x="195" y="182" type="line"/>
      <point x="210" y="351" type="line"/>
      <point x="-29" y="74" type="line"/>
      <point x="175" y="74" type="line"/>
      <point x="353" y="274" type="line"/>
    </contour>
  </outline>
</glyph>
<glyph name="dong" format="2">
  <advance width="705"/>
  <unicode hex="20AB"/>
  <outline>
    <contour>
      <point x="250" y="-10" type="curve" smooth="yes"/>
      <point x="383" y="-10"/>
      <point x="469" y="97"/>
      <point x="498" y="274" type="curve" smooth="yes"/>
      <point x="533" y="489"/>
      <point x="443" y="557"/>
      <point x="316" y="557" type="curve" smooth="yes"/>
      <point x="159" y="557"/>
      <point x="25" y="423"/>
      <point x="25" y="243" type="curve" smooth="yes"/>
      <point x="25" y="80"/>
      <point x="141" y="-10"/>
    </contour>
    <contour>
      <point x="-37" y="-148" type="line"/>
      <point x="570" y="-148" type="line"/>
      <point x="592" y="-38" type="line"/>
      <point x="-15" y="-38" type="line"/>
    </contour>
    <contour>
      <point x="335" y="168" type="curve" smooth="yes"/>
      <point x="284" y="168"/>
      <point x="254" y="203"/>
      <point x="254" y="254" type="curve" smooth="yes"/>
      <point x="254" y="330"/>
      <point x="294" y="379"/>
      <point x="353" y="379" type="curve" smooth="yes"/>
      <point x="404" y="379"/>
      <point x="434" y="344"/>
      <point x="434" y="293" type="curve" smooth="yes"/>
      <point x="434" y="217"/>
      <point x="394" y="168"/>
    </contour>
    <contour>
      <point x="387" y="0" type="line"/>
      <point x="600" y="0" type="line"/>
      <point x="748" y="742" type="line"/>
      <point x="522" y="742" type="line"/>
      <point x="468" y="472" type="line"/>
      <point x="439" y="274" type="line"/>
      <point x="402" y="74" type="line"/>
    </contour>
    <contour>
      <point x="340" y="585" type="line"/>
      <point x="768" y="585" type="line"/>
      <point x="790" y="695" type="line"/>
      <point x="362" y="695" type="line"/>
    </contour>
  </outline>
</glyph>
<glyph name="rupeeIndian" format="2">
  <advance width="728"/>
  <unicode hex="20B9"/>
  <outline>
    <contour>
      <point x="45" y="216" type="line"/>
      <point x="282" y="216" type="line" smooth="yes"/>
      <point x="486" y="216"/>
      <point x="651" y="305"/>
      <point x="651" y="482" type="curve" smooth="yes"/>
      <point x="651" y="558"/>
      <point x="611" y="619"/>
      <point x="547" y="652" type="curve"/>
      <point x="524" y="589" type="line"/>
      <point x="741" y="589" type="line"/>
      <point x="763" y="701" type="line" smooth="yes"/>
      <point x="142" y="701" type="line"/>
      <point x="120" y="589" type="line"/>
      <point x="322" y="589" type="line" smooth="yes"/>
      <point x="387" y="589"/>
      <point x="419" y="555"/>
      <point x="419" y="506" type="curve" smooth="yes"/>
      <point x="419" y="433"/>
      <point x="368" y="394"/>
      <point x="283" y="394" type="curve" smooth="yes"/>
      <point x="81" y="394" type="line"/>
    </contour>
    <contour>
      <point x="329" y="0" type="line"/>
      <point x="573" y="0" type="line"/>
      <point x="438" y="285" type="line"/>
      <point x="196" y="285" type="line"/>
    </contour>
    <contour>
      <point x="92" y="451" type="line"/>
      <point x="713" y="451" type="line"/>
      <point x="735" y="563" type="line"/>
      <point x="114" y="563" type="line"/>
    </contour>
  </outline>
</glyph>
<glyph name="upArrow" format="2">
  <advance width="600"/>
  <unicode hex="2191"/>
  <outline>
    <contour>
      <point x="52" y="219" type="line"/>
      <point x="300" y="361" type="line"/>
      <point x="548" y="219" type="line"/>
      <point x="548" y="382" type="line"/>
      <point x="300" y="542" type="line"/>
      <point x="52" y="382" type="line"/>
    </contour>
    <contour>
      <point x="214" y="20" type="line"/>
      <point x="386" y="20" type="line"/>
      <point x="386" y="388" type="line"/>
      <point x="214" y="388" type="line"/>
    </contour>
  </outline>
</glyph>
<glyph name="northWestArrow" format="2">
  <advance width="600"/>
  <unicode hex="2196"/>
  <outline>
    <contour>
      <point x="177" y="66" type="line"/>
      <point x="252" y="341" type="line"/>
      <point x="528" y="416" type="line"/>
      <point x="412" y="532" type="line"/>
      <point x="124" y="469" type="line"/>
      <point x="62" y="181" type="line"/>
    </contour>
    <contour>
      <point x="432" y="39" type="line"/>
      <point x="554" y="161" type="line"/>
      <point x="294" y="421" type="line"/>
      <point x="172" y="300" type="line"/>
    </contour>
  </outline>
</glyph>
<glyph name="De-cy.loclBGR" format="2">
  <advance width="884"/>
  <outline>
    <contour>
      <point x="-66" y="-137" type="line"/>
      <point x="150" y="-137" type="line"/>
      <point x="177" y="0" type="line"/>
      <point x="596" y="0" type="line"/>
      <point x="569" y="-137" type="line"/>
      <point x="785" y="-137" type="line"/>
      <point x="849" y="183" type="line"/>
      <point x="-2" y="183" type="line"/>
    </contour>
    <contour>
      <point x="641" y="700" type="line"/>
      <point x="409" y="700" type="line"/>
      <point x="-4" y="70" type="line"/>
      <point x="234" y="70" type="line"/>
      <point x="573" y="625" type="line"/>
      <point x="442" y="625" type="line"/>
      <point x="542" y="70" type="line"/>
      <point x="791" y="70" type="line"/>
    </contour>
  </outline>
</glyph>
<glyph name="Ef-cy.loclBGR" format="2">
  <advance width="991"/>
  <outline>
    <contour>
      <point x="470" y="-16" type="curve" smooth="yes"/>
      <point x="770" y="-16"/>
      <point x="983" y="150"/>
      <point x="983" y="382" type="curve" smooth="yes"/>
      <point x="983" y="587"/>
      <point x="816" y="716"/>
      <point x="551" y="716" type="curve" smooth="yes"/>
      <point x="251" y="716"/>
      <point x="38" y="550"/>
      <point x="38" y="318" type="curve" smooth="yes"/>
      <point x="38" y="113"/>
      <point x="205" y="-16"/>
    </contour>
    <contour>
      <point x="476" y="164" type="curve" smooth="yes"/>
      <point x="342" y="164"/>
      <point x="260" y="223"/>
      <point x="260" y="324" type="curve" smooth="yes"/>
      <point x="260" y="446"/>
      <point x="374" y="536"/>
      <point x="545" y="536" type="curve" smooth="yes"/>
      <point x="679" y="536"/>
      <point x="761" y="477"/>
      <point x="761" y="376" type="curve" smooth="yes"/>
      <point x="761" y="254"/>
      <point x="647" y="164"/>
    </contour>
    <contour>
      <point x="318" y="-66" type="line"/>
      <point x="535" y="-66" type="line"/>
      <point x="701" y="765" type="line"/>
      <point x="484" y="765" type="line"/>
    </contour>
  </outline>
</glyph>
<glyph name="El-cy.loclBGR" format="2">
  <advance width="832"/>
  <outline>
    <contour>
      <point x="617" y="700" type="line"/>
      <point x="385" y="700" type="line"/>
      <point x="-51" y="0" type="line"/>
      <point x="189" y="0" type="line"/>
      <point x="555" y="591" type="line"/>
      <point x="404" y="591" type="line"/>
      <point x="527" y="0" type="line"/>
      <point x="773" y="0" type="line"/>
    </contour>
  </outline>
</glyph>
<glyph name="Iacute_J.loclNLD" format="2">
  <advance width="729"/>
  <guideline x="556" y="701" angle="90"/>
  <outline>
    <contour>
      <point x="297" y="-16" type="curve" smooth="yes"/>
      <point x="508" y="-16"/>
      <point x="640" y="87"/>
      <point x="684" y="305" type="curve" smooth="yes"/>
      <point x="763" y="700" type="line"/>
      <point x="527" y="700" type="line"/>
      <point x="450" y="313" type="line" smooth="yes"/>
      <point x="430" y="211"/>
      <point x="390" y="172"/>
      <point x="307" y="172" type="curve" smooth="yes"/>
      <point x="240" y="172"/>
      <point x="170" y="194"/>
      <point x="106" y="238" type="curve"/>
      <point x="-8" y="69" type="line"/>
      <point x="66" y="17"/>
      <point x="163" y="-16"/>
    </contour>
    <contour>
      <point x="63" y="336" type="line"/>
      <point x="299" y="336" type="line"/>
      <point x="372" y="700" type="line"/>
      <point x="136" y="700" type="line"/>
    </contour>
    <contour>
      <point x="160" y="757" type="line"/>
      <point x="310" y="757" type="line"/>
      <point x="539" y="917" type="line"/>
      <point x="324" y="917" type="line"/>
    </contour>
    <contour>
      <point x="550" y="757" type="line"/>
      <point x="700" y="757" type="line"/>
      <point x="929" y="917" type="line"/>
      <point x="714" y="917" type="line"/>
    </contour>
  </outline>
</glyph>
<glyph name="Uogonek.loclNAV.ss01" format="2">
  <advance width="794"/>
  <anchor x="339" y="0" name="bottom"/>
  <anchor x="682" y="0" name="ogonek"/>
  <anchor x="479" y="700" name="top"/>
  <anchor x="717" y="700" name="topright"/>
  <outline>
    <contour>
      <point x="336" y="-240" type="curve" smooth="yes"/>
      <point x="379" y="-240"/>
      <point x="417" y="-230"/>
      <point x="444" y="-217" type="curve"/>
      <point x="435" y="-124" type="line"/>
      <point x="419" y="-131"/>
      <point x="397" y="-138"/>
      <point x="377" y="-138" type="curve" smooth="yes"/>
      <point x="346" y="-138"/>
      <point x="329" y="-122"/>
      <point x="329" y="-96" type="curve" smooth="yes"/>
      <point x="329" y="-61"/>
      <point x="364" y="-27"/>
      <point x="398" y="1" type="curve" smooth="yes"/>
      <point x="451" y="45"/>
      <point x="485" y="75"/>
      <point x="510" y="114" type="curve"/>
      <point x="486" y="164" type="line"/>
      <point x="453" y="0" type="line"/>
      <point x="682" y="0" type="line"/>
      <point x="822" y="700" type="line"/>
      <point x="586" y="700" type="line"/>
      <point x="508" y="310" type="line" smooth="yes"/>
      <point x="488" y="211"/>
      <point x="437" y="175"/>
      <point x="375" y="175" type="curve" smooth="yes"/>
      <point x="306" y="175"/>
      <point x="276" y="220"/>
      <point x="294" y="311" type="curve" smooth="yes"/>
      <point x="372" y="700" type="line"/>
      <point x="136" y="700" type="line"/>
      <point x="59" y="315" type="line" smooth="yes"/>
      <point x="17" y="105"/>
      <point x="111" y="-16"/>
      <point x="281" y="-16" type="curve" smooth="yes"/>
      <point x="296" y="-16"/>
      <point x="310" y="-15"/>
      <point x="324" y="-12" type="curve"/>
      <point x="385" y="99" type="line"/>
      <point x="278" y="22"/>
      <point x="190" y="-44"/>
      <point x="190" y="-132" type="curve" smooth="yes"/>
      <point x="190" y="-200"/>
      <point x="248" y="-240"/>
    </contour>
  </outline>
</glyph>
<glyph name="aogonek.loclNAV" format="2">
  <advance width="700"/>
  <anchor x="421" y="547" name="top"/>
  <outline>
    <contour>
      <point x="277" y="-240" type="curve" smooth="yes"/>
      <point x="320" y="-240"/>
      <point x="358" y="-230"/>
      <point x="385" y="-217" type="curve"/>
      <point x="376" y="-124" type="line"/>
      <point x="360" y="-131"/>
      <point x="338" y="-138"/>
      <point x="318" y="-138" type="curve" smooth="yes"/>
      <point x="288" y="-138"/>
      <point x="270" y="-123"/>
      <point x="270" y="-95" type="curve" smooth="yes"/>
      <point x="270" y="-71"/>
      <point x="284" y="-43"/>
      <point x="360" y="16" type="curve" smooth="yes"/>
      <point x="437" y="76"/>
      <point x="476" y="154"/>
      <point x="493" y="275" type="curve" smooth="yes"/>
      <point x="522" y="484"/>
      <point x="445" y="557"/>
      <point x="320" y="557" type="curve" smooth="yes"/>
      <point x="151" y="557"/>
      <point x="20" y="423"/>
      <point x="20" y="245" type="curve" smooth="yes"/>
      <point x="20" y="78"/>
      <point x="136" y="-10"/>
      <point x="247" y="-10" type="curve" smooth="yes"/>
      <point x="259" y="-10"/>
      <point x="274" y="-9"/>
      <point x="288" y="-6" type="curve"/>
      <point x="314" y="88" type="line"/>
      <point x="216" y="12"/>
      <point x="131" y="-54"/>
      <point x="131" y="-133" type="curve" smooth="yes"/>
      <point x="131" y="-199"/>
      <point x="189" y="-240"/>
    </contour>
    <contour>
      <point x="329" y="168" type="curve" smooth="yes"/>
      <point x="279" y="168"/>
      <point x="249" y="201"/>
      <point x="249" y="259" type="curve" smooth="yes"/>
      <point x="249" y="322"/>
      <point x="284" y="379"/>
      <point x="349" y="379" type="curve" smooth="yes"/>
      <point x="399" y="379"/>
      <point x="429" y="346"/>
      <point x="429" y="288" type="curve" smooth="yes"/>
      <point x="429" y="225"/>
      <point x="394" y="168"/>
    </contour>
    <contour>
      <point x="383" y="0" type="line"/>
      <point x="596" y="0" type="line"/>
      <point x="705" y="547" type="line"/>
      <point x="479" y="547" type="line"/>
      <point x="464" y="472" type="line"/>
      <point x="435" y="274" type="line"/>
      <point x="398" y="74" type="line"/>
    </contour>
  </outline>
</glyph>
<glyph name="aogonek.loclNAV.sc.ss01" format="2">
  <advance width="700"/>
  <anchor x="411" y="582" name="top"/>
  <anchor x="115" y="582" name="topleft"/>
  <outline>
    <contour>
      <point x="-7" y="0" type="line"/>
      <point x="214" y="0" type="line"/>
      <point x="278" y="321" type="line" smooth="yes"/>
      <point x="292" y="389"/>
      <point x="328" y="417"/>
      <point x="374" y="417" type="curve" smooth="yes"/>
      <point x="427" y="417"/>
      <point x="451" y="386"/>
      <point x="437" y="314" type="curve" smooth="yes"/>
      <point x="374" y="0" type="line"/>
      <point x="598" y="0" type="line"/>
      <point x="658" y="298" type="line" smooth="yes"/>
      <point x="695" y="484"/>
      <point x="586" y="597"/>
      <point x="398" y="597" type="curve" smooth="yes"/>
      <point x="218" y="597"/>
      <point x="93" y="502"/>
      <point x="58" y="327" type="curve" smooth="yes"/>
    </contour>
    <contour>
      <point x="272" y="-240" type="curve" smooth="yes"/>
      <point x="315" y="-240"/>
      <point x="353" y="-230"/>
      <point x="380" y="-217" type="curve"/>
      <point x="371" y="-124" type="line"/>
      <point x="355" y="-131"/>
      <point x="333" y="-138"/>
      <point x="313" y="-138" type="curve" smooth="yes"/>
      <point x="284" y="-138"/>
      <point x="272" y="-120"/>
      <point x="272" y="-103" type="curve" smooth="yes"/>
      <point x="272" y="-75"/>
      <point x="308" y="-47"/>
      <point x="373" y="-29" type="curve"/>
      <point x="346" y="37" type="line"/>
      <point x="225" y="15"/>
      <point x="133" y="-54"/>
      <point x="133" y="-136" type="curve" smooth="yes"/>
      <point x="133" y="-200"/>
      <point x="188" y="-240"/>
    </contour>
    <contour>
      <point x="159" y="106" type="line"/>
      <point x="469" y="106" type="line"/>
      <point x="504" y="274" type="line"/>
      <point x="194" y="274" type="line"/>
    </contour>
  </outline>
</glyph>
<glyph name="descTail-cy" format="2">
  <advance width="359"/>
  <anchor x="-17" y="0" name="_bottomleft"/>
  <outline>
    <contour>
      <point x="11" y="-101" type="line"/>
      <point x="189" y="-101" type="line"/>
      <point x="325" y="177" type="line"/>
      <point x="25" y="177" type="line"/>
      <point x="-17" y="0" type="line"/>
      <point x="195" y="0" type="line"/>
      <point x="67" y="48" type="line"/>
    </contour>
  </outline>
</glyph>
<glyph name="dieresiscomb.narrow" format="2">
  <anchor x="355" y="547" name="_top"/>
  <anchor x="394" y="740" name="top"/>
  <outline>
    <contour>
      <point x="471" y="599" type="curve" smooth="yes"/>
      <point x="522" y="599"/>
      <point x="559" y="639"/>
      <point x="559" y="696" type="curve" smooth="yes"/>
      <point x="559" y="743"/>
      <point x="526" y="776"/>
      <point x="483" y="776" type="curve" smooth="yes"/>
      <point x="431" y="776"/>
      <point x="394" y="735"/>
      <point x="394" y="678" type="curve" smooth="yes"/>
      <point x="394" y="631"/>
      <point x="427" y="599"/>
    </contour>
    <contour>
      <point x="283" y="599" type="curve" smooth="yes"/>
      <point x="334" y="599"/>
      <point x="371" y="638"/>
      <point x="371" y="694" type="curve" smooth="yes"/>
      <point x="371" y="742"/>
      <point x="339" y="776"/>
      <point x="295" y="776" type="curve" smooth="yes"/>
      <point x="243" y="776"/>
      <point x="206" y="735"/>
      <point x="206" y="678" type="curve" smooth="yes"/>
      <point x="206" y="631"/>
      <point x="239" y="599"/>
    </contour>
  </outline>
</glyph>
<glyph name="dotaccentcomb.i" format="2">
  <anchor x="355" y="547" name="_top"/>
  <anchor x="405" y="796" name="top"/>
  <outline>
    <contour>
      <point x="379" y="591" type="curve" smooth="yes"/>
      <point x="466" y="591"/>
      <point x="523" y="643"/>
      <point x="523" y="718" type="curve" smooth="yes"/>
      <point x="523" y="778"/>
      <point x="474" y="821"/>
      <point x="395" y="821" type="curve" smooth="yes"/>
      <point x="308" y="821"/>
      <point x="251" y="768"/>
      <point x="251" y="698" type="curve" smooth="yes"/>
      <point x="251" y="638"/>
      <point x="300" y="591"/>
    </contour>
  </outline>
</glyph>
<glyph name="e.ss01" format="2">
  <advance width="642"/>
  <guideline x="456" y="354" angle="190.7905"/>
  <anchor x="278" y="0" name="bottom"/>
  <anchor x="399" y="0" name="ogonek"/>
  <anchor x="385" y="547" name="top"/>
  <outline>
    <contour>
      <point x="322" y="-10" type="curve" smooth="yes"/>
      <point x="404" y="-10"/>
      <point x="485" y="7"/>
      <point x="560" y="58" type="curve"/>
      <point x="466" y="195" type="line"/>
      <point x="431" y="169"/>
      <point x="389" y="157"/>
      <point x="350" y="157" type="curve" smooth="yes"/>
      <point x="276" y="157"/>
      <point x="239" y="183"/>
      <point x="239" y="251" type="curve" smooth="yes"/>
      <point x="239" y="327"/>
      <point x="267" y="403"/>
      <point x="349" y="403" type="curve" smooth="yes"/>
      <point x="406" y="403"/>
      <point x="442" y="364"/>
      <point x="427" y="301" type="curve"/>
      <point x="517" y="364" type="line"/>
      <point x="219" y="308" type="line"/>
      <point x="197" y="194" type="line"/>
      <point x="635" y="275" type="line"/>
      <point x="655" y="461"/>
      <point x="528" y="557"/>
      <point x="361" y="557" type="curve" smooth="yes"/>
      <point x="155" y="557"/>
      <point x="20" y="423"/>
      <point x="20" y="243" type="curve" smooth="yes"/>
      <point x="20" y="88"/>
      <point x="141" y="-10"/>
    </contour>
  </outline>
</glyph>
<glyph name="eogonek.loclNAV" format="2">
  <advance width="648"/>
  <anchor x="384" y="547" name="top"/>
  <outline>
    <contour>
      <point x="270" y="-240" type="curve" smooth="yes"/>
      <point x="313" y="-240"/>
      <point x="351" y="-230"/>
      <point x="378" y="-217" type="curve"/>
      <point x="369" y="-124" type="line"/>
      <point x="353" y="-131"/>
      <point x="331" y="-138"/>
      <point x="311" y="-138" type="curve" smooth="yes"/>
      <point x="280" y="-138"/>
      <point x="263" y="-122"/>
      <point x="263" y="-96" type="curve" smooth="yes"/>
      <point x="263" y="-65"/>
      <point x="287" y="-26"/>
      <point x="390" y="-6" type="curve" smooth="yes"/>
      <point x="457" y="7"/>
      <point x="505" y="21"/>
      <point x="560" y="58" type="curve"/>
      <point x="466" y="195" type="line"/>
      <point x="431" y="169"/>
      <point x="389" y="157"/>
      <point x="343" y="157" type="curve" smooth="yes"/>
      <point x="274" y="157"/>
      <point x="239" y="183"/>
      <point x="239" y="257" type="curve" smooth="yes"/>
      <point x="239" y="324"/>
      <point x="267" y="403"/>
      <point x="349" y="403" type="curve" smooth="yes"/>
      <point x="406" y="403"/>
      <point x="442" y="364"/>
      <point x="427" y="301" type="curve"/>
      <point x="521" y="330" type="line"/>
      <point x="221" y="330" type="line"/>
      <point x="200" y="221" type="line"/>
      <point x="625" y="221" type="line"/>
      <point x="632" y="250"/>
      <point x="637" y="282"/>
      <point x="637" y="316" type="curve" smooth="yes"/>
      <point x="637" y="457"/>
      <point x="534" y="557"/>
      <point x="359" y="557" type="curve" smooth="yes"/>
      <point x="155" y="557"/>
      <point x="20" y="421"/>
      <point x="20" y="249" type="curve" smooth="yes"/>
      <point x="20" y="86"/>
      <point x="141" y="-10"/>
      <point x="321" y="-10" type="curve" smooth="yes"/>
      <point x="339" y="-10"/>
      <point x="357" y="-9"/>
      <point x="369" y="-8" type="curve"/>
      <point x="327" y="45" type="line"/>
      <point x="214" y="16"/>
      <point x="124" y="-44"/>
      <point x="124" y="-132" type="curve" smooth="yes"/>
      <point x="124" y="-200"/>
      <point x="182" y="-240"/>
    </contour>
  </outline>
</glyph>
<glyph name="eogonek.loclNAV.ss01" format="2">
  <advance width="642"/>
  <anchor x="385" y="547" name="top"/>
  <outline>
    <contour>
      <point x="20" y="248" type="curve" smooth="yes"/>
      <point x="20" y="85"/>
      <point x="141" y="-10"/>
      <point x="321" y="-10" type="curve" smooth="yes"/>
      <point x="339" y="-10"/>
      <point x="357" y="-9"/>
      <point x="369" y="-8" type="curve"/>
      <point x="327" y="45" type="line"/>
      <point x="214" y="16"/>
      <point x="124" y="-44"/>
      <point x="124" y="-132" type="curve" smooth="yes"/>
      <point x="124" y="-200"/>
      <point x="182" y="-240"/>
      <point x="270" y="-240" type="curve" smooth="yes"/>
      <point x="313" y="-240"/>
      <point x="351" y="-230"/>
      <point x="378" y="-217" type="curve"/>
      <point x="369" y="-124" type="line"/>
      <point x="353" y="-131"/>
      <point x="331" y="-138"/>
      <point x="311" y="-138" type="curve" smooth="yes"/>
      <point x="280" y="-138"/>
      <point x="263" y="-122"/>
      <point x="263" y="-96" type="curve" smooth="yes"/>
      <point x="263" y="-65"/>
      <point x="287" y="-26"/>
      <point x="390" y="-6" type="curve" smooth="yes"/>
      <point x="457" y="7"/>
      <point x="505" y="21"/>
      <point x="560" y="58" type="curve"/>
      <point x="466" y="195" type="line"/>
      <point x="431" y="169"/>
      <point x="391" y="157"/>
      <point x="344" y="157" type="curve" smooth="yes"/>
      <point x="275" y="157"/>
      <point x="239" y="183"/>
      <point x="239" y="258" type="curve" smooth="yes"/>
      <point x="239" y="324"/>
      <point x="267" y="403"/>
      <point x="349" y="403" type="curve" smooth="yes"/>
      <point x="406" y="403"/>
      <point x="442" y="364"/>
      <point x="427" y="301" type="curve"/>
      <point x="517" y="364" type="line"/>
      <point x="219" y="308" type="line"/>
      <point x="197" y="194" type="line"/>
      <point x="635" y="275" type="line"/>
      <point x="655" y="461"/>
      <point x="529" y="557"/>
      <point x="359" y="557" type="curve" smooth="yes"/>
      <point x="155" y="557"/>
      <point x="20" y="420"/>
    </contour>
  </outline>
</glyph>
<glyph name="er-cy.ss01" format="2">
  <advance width="686"/>
  <anchor x="346" y="0" name="bottom"/>
  <anchor x="404" y="547" name="top"/>
  <outline>
    <contour>
      <point x="386" y="557" type="curve" smooth="yes"/>
      <point x="201" y="557"/>
      <point x="71" y="448"/>
      <point x="38" y="280" type="curve" smooth="yes"/>
      <point x="-56" y="-194" type="line"/>
      <point x="170" y="-194" type="line"/>
      <point x="235" y="137" type="line"/>
      <point x="191" y="137" type="line"/>
      <point x="200" y="44"/>
      <point x="257" y="-10"/>
      <point x="365" y="-10" type="curve" smooth="yes"/>
      <point x="535" y="-10"/>
      <point x="666" y="123"/>
      <point x="666" y="300" type="curve" smooth="yes"/>
      <point x="666" y="460"/>
      <point x="560" y="557"/>
    </contour>
    <contour>
      <point x="338" y="168" type="curve" smooth="yes"/>
      <point x="288" y="168"/>
      <point x="258" y="201"/>
      <point x="258" y="259" type="curve" smooth="yes"/>
      <point x="258" y="323"/>
      <point x="294" y="379"/>
      <point x="358" y="379" type="curve" smooth="yes"/>
      <point x="408" y="379"/>
      <point x="438" y="346"/>
      <point x="438" y="288" type="curve" smooth="yes"/>
      <point x="438" y="224"/>
      <point x="402" y="168"/>
    </contour>
  </outline>
</glyph>
<glyph name="guilsinglleft.sc" format="2">
  <advance width="344"/>
  <outline>
    <contour>
      <point x="116" y="111" type="line"/>
      <point x="292" y="111" type="line"/>
      <point x="170" y="374" type="line"/>
      <point x="157" y="222" type="line"/>
      <point x="372" y="471" type="line"/>
      <point x="188" y="471" type="line"/>
      <point x="28" y="291" type="line"/>
    </contour>
  </outline>
</glyph>
<glyph name="oe.ss01" format="2">
  <advance width="1056"/>
  <anchor x="482" y="0" name="bottom"/>
  <anchor x="591" y="547" name="top"/>
  <outline>
    <contour>
      <point x="305" y="-10" type="curve" smooth="yes"/>
      <point x="494" y="-10"/>
      <point x="628" y="124"/>
      <point x="628" y="304" type="curve" smooth="yes"/>
      <point x="628" y="457"/>
      <point x="519" y="557"/>
      <point x="349" y="557" type="curve" smooth="yes"/>
      <point x="156" y="557"/>
      <point x="20" y="423"/>
      <point x="20" y="243" type="curve" smooth="yes"/>
      <point x="20" y="90"/>
      <point x="131" y="-10"/>
    </contour>
    <contour>
      <point x="331" y="168" type="curve" smooth="yes"/>
      <point x="280" y="168"/>
      <point x="250" y="203"/>
      <point x="250" y="254" type="curve" smooth="yes"/>
      <point x="250" y="330"/>
      <point x="290" y="379"/>
      <point x="349" y="379" type="curve" smooth="yes"/>
      <point x="400" y="379"/>
      <point x="430" y="344"/>
      <point x="430" y="293" type="curve" smooth="yes"/>
      <point x="430" y="217"/>
      <point x="390" y="168"/>
    </contour>
    <contour>
      <point x="731" y="-10" type="curve" smooth="yes"/>
      <point x="813" y="-10"/>
      <point x="894" y="7"/>
      <point x="969" y="58" type="curve"/>
      <point x="875" y="195" type="line"/>
      <point x="840" y="169"/>
      <point x="798" y="157"/>
      <point x="759" y="157" type="curve" smooth="yes"/>
      <point x="685" y="157"/>
      <point x="648" y="183"/>
      <point x="648" y="251" type="curve" smooth="yes"/>
      <point x="648" y="327"/>
      <point x="676" y="403"/>
      <point x="758" y="403" type="curve" smooth="yes"/>
      <point x="815" y="403"/>
      <point x="851" y="364"/>
      <point x="836" y="301" type="curve"/>
      <point x="926" y="364" type="line"/>
      <point x="628" y="308" type="line"/>
      <point x="606" y="194" type="line"/>
      <point x="1044" y="275" type="line"/>
      <point x="1064" y="461"/>
      <point x="937" y="557"/>
      <point x="770" y="557" type="curve" smooth="yes"/>
      <point x="582" y="557"/>
      <point x="450" y="423"/>
      <point x="450" y="243" type="curve" smooth="yes"/>
      <point x="450" y="88"/>
      <point x="568" y="-10"/>
    </contour>
  </outline>
</glyph>
<glyph name="one.tf" format="2">
  <advance width="700"/>
  <outline>
    <contour>
      <point x="203" y="0" type="line"/>
      <point x="439" y="0" type="line"/>
      <point x="579" y="700" type="line"/>
      <point x="218" y="700" type="line"/>
      <point x="182" y="522" type="line"/>
      <point x="408" y="522" type="line"/>
      <point x="326" y="616" type="line"/>
    </contour>
    <contour>
      <point x="99" y="178" type="line"/>
      <point x="63" y="0" type="line"/>
      <point x="559" y="0" type="line"/>
      <point x="595" y="178" type="line"/>
    </contour>
  </outline>
</glyph>
<glyph name="periodcentered.sc" format="2">
  <advance width="344"/>
  <anchor x="181" y="320" name="_dot"/>
  <outline>
    <contour>
      <point x="172" y="187" type="curve" smooth="yes"/>
      <point x="249" y="187"/>
      <point x="313" y="242"/>
      <point x="313" y="326" type="curve" smooth="yes"/>
      <point x="313" y="397"/>
      <point x="264" y="445"/>
      <point x="190" y="445" type="curve" smooth="yes"/>
      <point x="111" y="445"/>
      <point x="48" y="390"/>
      <point x="48" y="306" type="curve" smooth="yes"/>
      <point x="48" y="237"/>
      <point x="99" y="187"/>
    </contour>
  </outline>
</glyph>
<glyph name="s.sc" format="2">
  <advance width="574"/>
  <anchor x="233" y="0" name="bottom"/>
  <anchor x="349" y="582" name="top"/>
  <outline>
    <contour>
      <point x="238" y="-15" type="curve" smooth="yes"/>
      <point x="433" y="-15"/>
      <point x="550" y="77"/>
      <point x="550" y="210" type="curve" smooth="yes"/>
      <point x="550" y="392"/>
      <point x="274" y="357"/>
      <point x="274" y="404" type="curve" smooth="yes"/>
      <point x="274" y="416"/>
      <point x="293" y="429"/>
      <point x="342" y="429" type="curve" smooth="yes"/>
      <point x="399" y="429"/>
      <point x="457" y="414"/>
      <point x="505" y="385" type="curve"/>
      <point x="587" y="547" type="line"/>
      <point x="530" y="579"/>
      <point x="449" y="597"/>
      <point x="357" y="597" type="curve" smooth="yes"/>
      <point x="159" y="597"/>
      <point x="44" y="506"/>
      <point x="44" y="370" type="curve" smooth="yes"/>
      <point x="44" y="191"/>
      <point x="319" y="221"/>
      <point x="319" y="172" type="curve" smooth="yes"/>
      <point x="319" y="160"/>
      <point x="304" y="152"/>
      <point x="262" y="152" type="curve" smooth="yes"/>
      <point x="198" y="152"/>
      <point x="132" y="169"/>
      <point x="60" y="205" type="curve"/>
      <point x="-27" y="41" type="line"/>
      <point x="33" y="9"/>
      <point x="129" y="-15"/>
    </contour>
  </outline>
</glyph>
<glyph name="semisoftsign-cy.ss01" format="2">
  <advance width="696"/>
  <outline>
    <contour>
      <point x="32" y="391" type="line"/>
      <point x="532" y="391" type="line"/>
      <point x="556" y="511" type="line"/>
      <point x="56" y="511" type="line"/>
    </contour>
    <contour>
      <point x="346" y="-16" type="curve" smooth="yes"/>
      <point x="548" y="-16"/>
      <point x="666" y="65"/>
      <point x="666" y="201" type="curve" smooth="yes"/>
      <point x="666" y="308"/>
      <point x="599" y="361"/>
      <point x="461" y="361" type="curve" smooth="yes"/>
      <point x="411" y="361"/>
      <point x="366" y="356"/>
      <point x="335" y="347" type="curve"/>
      <point x="376" y="547" type="line"/>
      <point x="151" y="547" type="line"/>
      <point x="85" y="205" type="line" smooth="yes"/>
      <point x="57" y="61"/>
      <point x="148" y="-16"/>
    </contour>
    <contour>
      <point x="358" y="134" type="curve" smooth="yes"/>
      <point x="316" y="134"/>
      <point x="299" y="148"/>
      <point x="305" y="175" type="curve" smooth="yes"/>
      <point x="312" y="209" type="line"/>
      <point x="333" y="215"/>
      <point x="360" y="219"/>
      <point x="384" y="219" type="curve" smooth="yes"/>
      <point x="419" y="219"/>
      <point x="436" y="208"/>
      <point x="436" y="184" type="curve" smooth="yes"/>
      <point x="436" y="154"/>
      <point x="406" y="134"/>
    </contour>
  </outline>
</glyph>
<glyph name="slash.case" format="2">
  <advance width="440"/>
  <outline>
    <contour>
      <point x="-115" y="-100" type="line"/>
      <point x="91" y="-100" type="line"/>
      <point x="603" y="842" type="line"/>
      <point x="397" y="842" type="line"/>
    </contour>
  </outline>
</glyph>
<glyph name="slashshortcomb.case" format="2">
  <anchor x="326" y="401" name="_center"/>
  <outline>
    <contour>
      <point x="131" y="208" type="line"/>
      <point x="642" y="538" type="line"/>
      <point x="582" y="632" type="line"/>
      <point x="71" y="302" type="line"/>
    </contour>
  </outline>
</glyph>
<glyph name="strokeshortcomb.case" format="2">
  <anchor x="317" y="356" name="_center"/>
  <outline>
    <contour>
      <point x="69" y="288" type="line"/>
      <point x="539" y="288" type="line"/>
      <point x="566" y="424" type="line"/>
      <point x="96" y="424" type="line"/>
    </contour>
  </outline>
</glyph>
<glyph name="u.ss01" format="2">
  <advance width="759"/>
  <anchor x="293" y="0" name="bottom"/>
  <anchor x="695" y="4" name="ogonek"/>
  <anchor x="403" y="547" name="top"/>
  <anchor x="590" y="547" name="topright"/>
  <outline>
    <contour>
      <point x="230" y="-10" type="curve" smooth="yes"/>
      <point x="317" y="-10"/>
      <point x="415" y="41"/>
      <point x="461" y="159" type="curve"/>
      <point x="409" y="144" type="line"/>
      <point x="407" y="59"/>
      <point x="467" y="-10"/>
      <point x="595" y="-10" type="curve" smooth="yes"/>
      <point x="628" y="-10"/>
      <point x="659" y="-6"/>
      <point x="695" y="4" type="curve"/>
      <point x="719" y="169" type="line"/>
      <point x="709" y="164"/>
      <point x="693" y="161"/>
      <point x="680" y="161" type="curve" smooth="yes"/>
      <point x="651" y="161"/>
      <point x="631" y="174"/>
      <point x="637" y="215" type="curve"/>
      <point x="703" y="547" type="line"/>
      <point x="477" y="547" type="line"/>
      <point x="424" y="284" type="line" smooth="yes"/>
      <point x="410" y="213"/>
      <point x="375" y="180"/>
      <point x="325" y="180" type="curve" smooth="yes"/>
      <point x="279" y="180"/>
      <point x="262" y="212"/>
      <point x="274" y="272" type="curve" smooth="yes"/>
      <point x="329" y="547" type="line"/>
      <point x="103" y="547" type="line"/>
      <point x="43" y="245" type="line" smooth="yes"/>
      <point x="9" y="75"/>
      <point x="97" y="-10"/>
    </contour>
  </outline>
</glyph>
<glyph name="v.sc" format="2">
  <advance width="685"/>
  <outline>
    <contour>
      <point x="174" y="0" type="line"/>
      <point x="400" y="0" type="line"/>
      <point x="766" y="582" type="line"/>
      <point x="531" y="582" type="line"/>
      <point x="230" y="100" type="line"/>
      <point x="381" y="100" type="line"/>
      <point x="280" y="582" type="line"/>
      <point x="44" y="582" type="line"/>
    </contour>
  </outline>
</glyph>
<glyph name="zero.osf" format="2">
  <advance width="706"/>
  <outline>
    <contour>
      <point x="313" y="-16" type="curve" smooth="yes"/>
      <point x="529" y="-16"/>
      <point x="681" y="139"/>
      <point x="681" y="353" type="curve" smooth="yes"/>
      <point x="681" y="515"/>
      <point x="573" y="616"/>
      <point x="405" y="616" type="curve" smooth="yes"/>
      <point x="188" y="616"/>
      <point x="35" y="461"/>
      <point x="35" y="248" type="curve" smooth="yes"/>
      <point x="35" y="85"/>
      <point x="145" y="-16"/>
    </contour>
    <contour>
      <point x="340" y="166" type="curve" smooth="yes"/>
      <point x="297" y="166"/>
      <point x="268" y="198"/>
      <point x="268" y="262" type="curve" smooth="yes"/>
      <point x="268" y="341"/>
      <point x="303" y="434"/>
      <point x="376" y="434" type="curve" smooth="yes"/>
      <point x="419" y="434"/>
      <point x="448" y="402"/>
      <point x="448" y="338" type="curve" smooth="yes"/>
      <point x="448" y="259"/>
      <point x="413" y="166"/>
    </contour>
  </outline>
</glyph>
<glyph name="zero.tf" format="2">
  <advance width="700"/>
  <outline>
    <contour>
      <point x="310" y="-16" type="curve" smooth="yes"/>
      <point x="533" y="-16"/>
      <point x="696" y="178"/>
      <point x="696" y="442" type="curve" smooth="yes"/>
      <point x="696" y="613"/>
      <point x="592" y="716"/>
      <point x="418" y="716" type="curve" smooth="yes"/>
      <point x="195" y="716"/>
      <point x="32" y="522"/>
      <point x="32" y="258" type="curve" smooth="yes"/>
      <point x="32" y="87"/>
      <point x="136" y="-16"/>
    </contour>
    <contour>
      <point x="334" y="173" type="curve" smooth="yes"/>
      <point x="293" y="173"/>
      <point x="268" y="197"/>
      <point x="268" y="264" type="curve" smooth="yes"/>
      <point x="268" y="400"/>
      <point x="326" y="527"/>
      <point x="394" y="527" type="curve" smooth="yes"/>
      <point x="435" y="527"/>
      <point x="460" y="503"/>
      <point x="460" y="436" type="curve" smooth="yes"/>
      <point x="460" y="300"/>
      <point x="402" y="173"/>
    </contour>
  </outline>
</glyph>
